<svg width="99" height="24" viewBox="0 0 99 24" fill="none" xmlns="http://www.w3.org/2000/svg">
<g clip-path="url(#clip0_538_1049)">
<path d="M22.3055 11.9181C23.1855 11.9181 23.9097 11.2035 23.7928 10.3336C23.5513 8.53838 22.9016 6.81436 21.8849 5.29673C20.5718 3.33683 18.7056 1.80926 16.5221 0.907212C14.3387 0.00516833 11.9361 -0.230848 9.61809 0.228997C7.30027 0.688859 5.17106 1.82394 3.4999 3.49072C1.82875 5.15748 0.690667 7.28108 0.229612 9.59298C-0.231461 11.9048 0.00517552 14.3011 0.909594 16.4789C1.81403 18.6566 3.34559 20.5179 5.31067 21.8275C6.83227 22.8416 8.56098 23.4896 10.3609 23.7304C11.233 23.8471 11.9494 23.1247 11.9494 22.247V18.4674C11.9494 17.5899 11.2184 16.9025 10.3832 16.6261C9.96211 16.4867 9.55932 16.291 9.18638 16.0425C8.36839 15.4973 7.73104 14.7227 7.35465 13.8163C6.97803 12.9099 6.87963 11.9125 7.07151 10.9503C7.26345 9.9881 7.73701 9.10426 8.4326 8.41054C9.12814 7.71682 10.0143 7.24437 10.9792 7.05296C11.9438 6.8616 12.9439 6.95983 13.8526 7.33528C14.7613 7.71068 15.5382 8.3465 16.0846 9.16221C16.3338 9.53421 16.53 9.93594 16.6698 10.356C16.9469 11.189 17.6361 11.9181 18.5162 11.9181H22.3055Z" fill="white"/>
<mask id="mask0_538_1049" style="mask-type:luminance" maskUnits="userSpaceOnUse" x="11" y="11" width="13" height="13">
<path d="M23.8291 11.3223H11.2822V23.8362H23.8291V11.3223Z" fill="white"/>
</mask>
<g mask="url(#mask0_538_1049)">
<mask id="mask1_538_1049" style="mask-type:luminance" maskUnits="userSpaceOnUse" x="11" y="11" width="13" height="13">
<path d="M23.8261 11.3224H11.2793V23.8363H23.8261V11.3224Z" fill="white"/>
</mask>
<g mask="url(#mask1_538_1049)">
<path fill-rule="evenodd" clip-rule="evenodd" d="M17.5527 12.6989C17.5527 11.9387 16.9348 11.3224 16.1726 11.3224H12.6595C11.8972 11.3224 11.2793 11.9387 11.2793 12.6989V16.2479C11.2793 17.008 11.8972 17.6243 12.6595 17.6243H16.1726C16.9348 17.6243 17.5527 18.2408 17.5527 19.0008V22.4598C17.5527 23.22 18.1706 23.8363 18.9329 23.8363H22.446C23.2083 23.8363 23.8261 23.22 23.8261 22.4598V18.9109C23.8261 18.1506 23.2083 17.5343 22.446 17.5343H18.9329C18.1706 17.5343 17.5527 16.9181 17.5527 16.1578V12.6989Z" fill="white"/>
</g>
</g>
<path fill-rule="evenodd" clip-rule="evenodd" d="M30.2411 3.2196H44.5302C45.0084 3.2196 45.3962 3.60736 45.3962 4.08561V5.92587L41.1961 10.966C41.1138 11.0647 40.9919 11.1219 40.8633 11.1219H38.5448C37.8176 11.1219 37.4142 10.2795 37.8702 9.71289L40.3084 6.68362H32.5144C32.0361 6.68362 30.0246 6.90015 30.0246 6.1424V5.92587C30.0246 5.44762 29.7629 3.2196 30.2411 3.2196ZM35.4372 17.9417H44.0972C44.5754 17.9417 44.9632 18.3295 44.9632 18.8077V20.7562C44.9632 21.2345 44.5754 21.6222 44.0972 21.6222H31.1071C30.6289 21.6222 30.2411 21.2345 30.2411 20.7562V17.9417L33.6186 13.8479C33.7419 13.6983 33.9256 13.6117 34.1196 13.6117H37.026C37.7462 13.6117 38.1516 14.4391 37.7106 15.0081L35.4372 17.9417Z" fill="white"/>
<path fill-rule="evenodd" clip-rule="evenodd" d="M48.1433 4.8433C48.1433 4.36505 48.531 3.97729 49.0093 3.97729H60.4837C60.962 3.97729 61.3501 4.36505 61.3501 4.8433V6.57531C61.3501 7.05355 60.962 7.4413 60.4837 7.4413H49.0093C48.531 7.4413 48.1433 7.05355 48.1433 6.57531V4.8433ZM47.9268 11.9878C47.9268 11.5096 48.3145 11.1218 48.7928 11.1218H59.4014C59.8796 11.1218 60.2672 11.5096 60.2672 11.9878V13.7199C60.2672 14.1981 59.8796 14.5859 59.4014 14.5859H48.7928C48.3145 14.5859 47.9268 14.1981 47.9268 13.7199V11.9878ZM48.7928 18.4829C48.3145 18.4829 47.9268 18.8706 47.9268 19.3489V21.0809C47.9268 21.5592 48.3145 21.9469 48.7928 21.9469H60.4837C60.962 21.9469 61.3501 21.5592 61.3501 21.0809V19.3489C61.3501 18.8706 60.962 18.4829 60.4837 18.4829H48.7928Z" fill="white"/>
<path d="M64.4209 12.9621V20.5397C64.4209 21.0179 64.809 21.4057 65.2872 21.4057H67.127C67.6053 21.4057 67.9934 21.0179 67.9934 20.5397V16.8592C67.9934 16.3809 68.3809 15.9931 68.8591 15.9931H71.8416C72.1413 15.9931 72.4193 16.1482 72.5774 16.4028L75.4252 20.9961C75.5832 21.2506 75.8613 21.4057 76.161 21.4057H78.5464C79.25 21.4057 79.6597 20.6107 79.2517 20.0374L75.9105 15.3441C75.8109 15.2042 75.9069 15.0063 76.0761 14.979C77.8281 14.6981 78.7975 13.102 79.1089 12.2005C79.1329 12.1314 79.1633 12.0651 79.1979 12.0006C79.8137 10.8372 79.4238 8.49417 79.1434 7.44133C78.7103 5.79593 76.0041 3.54431 74.7046 3.54431H65.2872C64.809 3.54431 64.4209 3.93206 64.4209 4.41031V6.57534C64.4209 7.05359 64.809 7.44133 65.2872 7.44133H73.8388C75.2461 7.44133 75.6792 8.63208 75.6792 9.49807C75.6792 11.6631 74.6326 12.0961 73.8388 12.0961H65.2872C64.809 12.0961 64.4209 12.4839 64.4209 12.9621Z" fill="white"/>
<path fill-rule="evenodd" clip-rule="evenodd" d="M87.405 4.18111C84.6737 5.16662 80.7886 7.84667 80.9794 13.1785C80.98 15.4258 82.0009 20.3525 87.4284 21.9197C87.9505 22.0704 88.4487 21.659 88.4487 21.1154V19.3453C88.4487 18.9621 88.1941 18.6298 87.8487 18.4646C86.4895 17.8153 84.6608 16.1695 84.6608 13.1785V13.1559C84.6602 11.9078 84.6602 9.31044 87.9459 7.57887C88.2467 7.42064 88.4487 7.11491 88.4487 6.77522V4.95964C88.4487 4.40215 87.9295 3.99167 87.405 4.18111ZM91.9825 4.18111C94.7133 5.16662 98.5989 7.84667 98.4081 13.1785C98.4075 15.4258 97.3866 20.3525 91.9591 21.9197C91.437 22.0704 90.9388 21.659 90.9388 21.1154V19.3453C90.9388 18.9621 91.1935 18.6298 91.5388 18.4646C92.8981 17.8153 94.7267 16.1695 94.7267 13.1785V13.1559C94.7273 11.9078 94.7273 9.31044 91.4411 7.57887C91.1408 7.42064 90.9388 7.11491 90.9388 6.77522V4.95964C90.9388 4.40215 91.4581 3.99167 91.9825 4.18111Z" fill="white"/>
</g>
<defs>
<clipPath id="clip0_538_1049">
<rect width="98.9268" height="24" fill="white"/>
</clipPath>
</defs>
</svg>
